<svg xmlns="http://www.w3.org/2000/svg" viewBox="0 0 425.71 71.47"><defs><style>.cls-1,.cls-2{fill:#5f6369;}.cls-2{font-size:48px;font-family:Nunito-Bold, Nunito;font-weight:700;}.cls-3{letter-spacing:0.01em;}.cls-4{font-family:Nunito-Regular, Nunito;font-weight:400;}</style></defs><g id="Layer_2" data-name="Layer 2"><g id="Layer_2-2" data-name="Layer 2"><path class="cls-1" d="M71.77,68.27,55,51.54,38.09,68.49a3.33,3.33,0,0,1-4.71-4.71L55,42.11,71.66,58.73a35.64,35.64,0,0,0,0-45.39l-25,25.06L16.73,68.27l-2.35-2.36a42.24,42.24,0,0,1,0-59.75L16.73,3.8,33.21,20.28,50.51,3a3.33,3.33,0,0,1,4.71,4.71l-22,22L16.84,13.34a35.61,35.61,0,0,0,0,45.39l25.06-25L69.44,6.14l2.35-2.32,2.34,2.34a42.3,42.3,0,0,1,0,59.75Z"/><path class="cls-1" d="M35.73,71.47A5.34,5.34,0,0,1,32,62.36L55,39.28,71.47,55.71a33.58,33.58,0,0,0,0-39.35L48,39.81,16.73,71.1,13,67.33A44.25,44.25,0,0,1,13,4.75L16.73,1,33.21,17.45,49.1,1.56a5.34,5.34,0,0,1,7.54,0,5.35,5.35,0,0,1,0,7.55L33.21,32.54,17,16.36A33.07,33.07,0,0,0,10.67,36,33.07,33.07,0,0,0,17,55.72L40.48,32.27C40.75,32,67.86,4.89,68,4.71L71.8,1l3.75,3.74a44.3,44.3,0,0,1,0,62.58L71.77,71.1,55,54.37,39.5,69.91A5.31,5.31,0,0,1,35.73,71.47ZM55,44.94,34.79,65.19a1.34,1.34,0,0,0,1.89,1.89L55,48.71,71.77,65.44l.94-.94a40.3,40.3,0,0,0,0-56.93l-.94-.93-.94.93L43.31,35.09,16.7,61.7,15.3,60A37.06,37.06,0,0,1,6.67,36a37.07,37.07,0,0,1,8.63-24l1.4-1.68,16.51,16.5,20.6-20.6a1.34,1.34,0,0,0,0-1.89,1.38,1.38,0,0,0-1.89,0L33.21,23.11,16.73,6.63l-.94.94a40.26,40.26,0,0,0,0,56.93l.94.94L45.2,37l25-25,1.55-1.55,1.4,1.69A37.57,37.57,0,0,1,73.2,60L71.8,61.7Z"/><text class="cls-2" transform="translate(104.22 48.55)">Infini<tspan class="cls-3" x="111.21" y="0">t</tspan><tspan x="129.31" y="0">y</tspan><tspan class="cls-4" x="154.56" y="0" xml:space="preserve"> Upload</tspan></text></g></g></svg>