<svg xmlns="http://www.w3.org/2000/svg" viewBox="0 0 88.48 71.47"><defs><style>.cls-1{fill:#5f6369;stroke:#5f6369;stroke-miterlimit:10;stroke-width:4px;}</style></defs><g id="Layer_2" data-name="Layer 2"><g id="Layer_2-2" data-name="Layer 2"><path class="cls-1" d="M71.77,68.27,55,51.54,38.09,68.49a3.33,3.33,0,0,1-4.71-4.71L55,42.11,71.66,58.73a35.64,35.64,0,0,0,0-45.39l-25,25.06L16.73,68.27l-2.35-2.36a42.24,42.24,0,0,1,0-59.75L16.73,3.8,33.21,20.28,50.51,3a3.33,3.33,0,0,1,4.71,4.71l-22,22L16.84,13.34a35.61,35.61,0,0,0,0,45.39l25.06-25L69.44,6.14l2.35-2.32,2.34,2.34a42.3,42.3,0,0,1,0,59.75Z"/></g></g></svg>